Coordinates
version=1
nRows=11
nColumns=40
inDegrees=yes

Units are S.I. units (second, meters, Newtons, ...)
Angles are in degrees.

endheader
time	pelvis_tilt	pelvis_list	pelvis_rotation	pelvis_tx	pelvis_ty	pelvis_tz	hip_flexion_r	hip_adduction_r	hip_rotation_r	knee_angle_r	knee_angle_r_beta	ankle_angle_r	subtalar_angle_r	mtp_angle_r	hip_flexion_l	hip_adduction_l	hip_rotation_l	knee_angle_l	knee_angle_l_beta	ankle_angle_l	subtalar_angle_l	mtp_angle_l	lumbar_extension	lumbar_bending	lumbar_rotation	arm_flex_r	arm_add_r	arm_rot_r	elbow_flex_r	pro_sup_r	wrist_flex_r	wrist_dev_r	arm_flex_l	arm_add_l	arm_rot_l	elbow_flex_l	pro_sup_l	wrist_flex_l	wrist_dev_l
     38.61000000	     -1.08000204	     -6.59458710	      3.88058359	      1.09966147	      0.92973020	      0.50293295	     11.72392627	      4.56044052	    -17.42718784	     18.84055161	     18.84055161	     10.30187812	     -2.60511556	     -4.70903861	     27.86474330	    -16.14057880	     -0.12326360	     64.06935990	     64.06935990	     13.63848967	    -19.30478286	     19.02943588	    -10.01266061	      8.01839009	      5.02948196	      5.96297559	    -14.11776839	    -12.35015888	     38.14805498	     45.41202454	      0.00000000	      0.00000000	     10.18642427	     -8.51216230	     -1.26545356	     61.25192966	     46.15415316	      0.00000000	      0.00000000
     38.62128571	     -1.09739734	     -6.55988651	      4.29888532	      1.09828144	      0.93017961	      0.50316325	     10.82629940	      4.68575089	    -17.63350146	     18.17601349	     18.17601349	     10.53204106	     -2.51724852	     -4.95367770	     29.38143234	    -15.81236607	      0.02080852	     62.05291532	     62.05291532	     13.27797286	    -19.26167037	     18.35917540	    -10.01804442	      7.90870391	      4.88847962	      8.01462187	    -14.42008822	    -12.02390551	     40.27386841	     45.34958375	      0.00000000	      0.00000000	      9.09558326	     -8.18389318	     -0.80814684	     57.47453126	     46.10894366	      0.00000000	      0.00000000
     38.63257143	     -1.06645875	     -6.53088522	      4.69877732	      1.09696623	      0.93065612	      0.50337400	      9.85560655	      4.84318551	    -17.80884175	     17.44349787	     17.44349787	     10.70829528	     -2.44188393	     -5.23003357	     30.58921752	    -15.45617047	      0.09655913	     59.68501030	     59.68501030	     12.81037903	    -19.20814808	     17.75151983	    -10.09715296	      7.82435191	      4.91963806	      9.82965084	    -14.83893051	    -11.56703984	     42.80504142	     45.27113787	      0.00000000	      0.00000000	      8.32659365	     -7.82808629	     -0.13713461	     53.21851380	     46.05250074	      0.00000000	      0.00000000
     38.64385714	     -1.02317148	     -6.45919794	      5.08748971	      1.09574600	      0.93113800	      0.50351682	      8.84310669	      4.97174537	    -17.94683113	     16.66857584	     16.66857584	     10.95076058	     -2.31311494	     -5.22351677	     31.54062743	    -15.00401905	      0.11607614	     57.00178568	     57.00178568	     12.47745906	    -19.13193336	     17.88155739	    -10.22499526	      7.67674432	      4.39759322	     12.26581644	    -14.82283356	    -11.57447591	     44.60023130	     45.22457101	      0.00000000	      0.00000000	      6.72096214	     -7.86096917	      0.29171217	     50.83020008	     45.98415822	      0.00000000	      0.00000000
     38.65514286	     -1.02579023	     -6.49640712	      5.44894297	      1.09459329	      0.93135974	      0.50360763	      7.86621984	      5.20219124	    -18.20559438	     15.83322577	     15.83322577	     11.02326912	     -2.03265142	     -5.74995496	     32.36918971	    -14.66527748	      0.10193852	     54.03914101	     54.03914101	     11.78647668	    -19.04413020	     17.06220477	    -10.22925532	      7.69413937	      4.90513033	     13.61631798	    -15.59478840	    -11.07571570	     47.46471783	     45.14025540	      0.00000000	      0.00000000	      6.89281294	     -7.12969892	      0.96071455	     44.90203397	     45.91077056	      0.00000000	      0.00000000
     38.66642857	     -1.04234062	     -6.53713522	      5.79764985	      1.09351529	      0.93151924	      0.50364841	      6.85205147	      5.46281239	    -18.47650414	     14.89057299	     14.89057299	     11.18379115	     -1.64263302	     -5.90134450	     33.04026837	    -14.27758082	      0.08896528	     50.84256417	     50.84256417	     11.33989198	    -18.89246447	     16.94629159	    -10.25186512	      7.67527403	      4.58980244	     15.79114844	    -15.69177379	    -11.10102714	     49.59054879	     45.09162821	      0.00000000	      0.00000000	      5.67149372	     -7.00105076	      1.39347036	     41.93551693	     45.84223673	      0.00000000	      0.00000000
     38.67771429	     -1.05435649	     -6.52106375	      6.09953312	      1.09260606	      0.93163552	      0.50354524	      5.79590087	      5.64296727	    -18.77961313	     13.91700194	     13.91700194	     11.25238978	     -1.07082490	     -6.41308759	     33.43647021	    -13.83771677	     -0.03567602	     47.27726865	     47.27726865	     10.55318759	    -18.69795065	     15.93138339	    -10.27331436	      7.62746944	      4.91154721	     17.24104943	    -16.22114019	    -10.97634723	     52.34036992	     45.02840214	      0.00000000	      0.00000000	      5.41622734	     -6.54169667	      1.90534796	     37.23381945	     45.76986232	      0.00000000	      0.00000000
     38.68900000	     -1.13038106	     -6.49786953	      6.35916778	      1.09171545	      0.93160586	      0.50339695	      4.81009124	      5.84166941	    -18.89038590	     12.93883796	     12.93883796	     11.42697114	     -0.69913446	     -6.41359940	     33.76718073	    -13.33650135	     -0.11992417	     43.56980156	     43.56980156	     10.20755991	    -18.34666807	     16.12210266	    -10.26242128	      7.52644014	      4.58278990	     19.44493833	    -16.14191643	    -11.13083780	     54.24582026	     44.98525327	      0.00000000	      0.00000000	      3.83972312	     -6.58135905	      2.13432360	     35.47985274	     45.71517990	      0.00000000	      0.00000000
     38.70028571	     -1.22015635	     -6.61198421	      6.61460408	      1.09099290	      0.93129036	      0.50310599	      3.73992599	      6.17062879	    -19.35739580	     11.76153119	     11.76153119	     11.41849626	      0.23850381	     -7.09685775	     33.95163185	    -13.00911790	     -0.26052737	     39.59329705	     39.59329705	      9.01795600	    -17.87585623	     13.76314136	    -10.16322805	      7.63637781	      5.00925868	     20.59906317	    -16.77579363	    -11.23847327	     58.01051646	     44.91092610	      0.00000000	      0.00000000	      3.64472372	     -6.09240066	      2.64229045	     30.80441173	     45.64082232	      0.00000000	      0.00000000
     38.71157143	     -1.35544429	     -6.68660681	      6.83785948	      1.09039313	      0.93087260	      0.50272506	      2.71758153	      6.46445385	    -19.67614901	     10.60637677	     10.60637677	     11.47664757	      1.04941864	     -7.37109781	     34.03177702	    -12.62229050	     -0.42516265	     35.53753257	     35.53753257	      8.25546141	    -17.02273938	     12.50255554	    -10.03840458	      7.66266097	      5.02408728	     22.16648821	    -16.93070505	    -11.56143693	     61.02283657	     44.87952520	      0.00000000	      0.00000000	      2.52304975	     -5.98876690	      2.98156460	     28.28000472	     45.57115079	      0.00000000	      0.00000000
     38.72285714	     -1.54248019	     -6.72634459	      6.97376214	      1.08981367	      0.93026089	      0.50233762	      1.80399875	      6.71597544	    -19.78905506	      9.57877887	      9.57877887	     11.64640868	      1.62343046	     -7.36556355	     34.09305382	    -12.24136313	     -0.67934284	     31.62310723	     31.62310723	      8.18122306	    -15.61878379	     12.79415148	     -9.86239031	      7.61800365	      4.76113980	     24.38614435	    -16.82143861	    -11.67942608	     63.04205480	     44.83323808	      0.00000000	      0.00000000	      0.85081842	     -6.02816648	      3.13903623	     26.94807211	     45.52086695	      0.00000000	      0.00000000
